<svg width="720" height="640" viewBox="0 0 720 640" fill="none" xmlns="http://www.w3.org/2000/svg">
  <defs>
    <linearGradient id="frame" x1="120" y1="80" x2="580" y2="520" gradientUnits="userSpaceOnUse">
      <stop stop-color="#5FA6EF"/>
      <stop offset="1" stop-color="#2B6DBF"/>
    </linearGradient>
    <linearGradient id="face" x1="140" y1="120" x2="560" y2="520" gradientUnits="userSpaceOnUse">
      <stop stop-color="#3D80D9"/>
      <stop offset="1" stop-color="#1E4F8F"/>
    </linearGradient>
    <radialGradient id="dial" cx="0" cy="0" r="1" gradientUnits="userSpaceOnUse" gradientTransform="translate(360 300) rotate(90) scale(92 92)">
      <stop stop-color="#79C2F2"/>
      <stop offset="1" stop-color="#2767AC"/>
    </radialGradient>
    <filter id="shadow" x="60" y="40" width="560" height="520" filterUnits="userSpaceOnUse" color-interpolation-filters="sRGB">
      <feOffset dy="24" />
      <feGaussianBlur stdDeviation="32" result="blur"/>
      <feColorMatrix in="blur" type="matrix" values="0 0 0 0 0.031 0 0 0 0 0.118 0 0 0 0 0.216 0 0 0 0.32 0"/>
      <feBlend in="SourceGraphic" in2="blur" mode="normal"/>
    </filter>
  </defs>
  <g filter="url(#shadow)">
    <rect x="120" y="80" width="440" height="440" rx="72" fill="url(#frame)"/>
    <rect x="156" y="116" width="368" height="368" rx="60" fill="url(#face)"/>
    <circle cx="360" cy="300" r="92" fill="url(#dial)"/>
    <circle cx="360" cy="300" r="58" fill="#153D74"/>
    <circle cx="360" cy="300" r="14" fill="#F5FBFF"/>
    <g stroke="#E7F2FF" stroke-width="12" stroke-linecap="round">
      <line x1="360" y1="212" x2="360" y2="272"/>
      <line x1="308" y1="332" x2="352" y2="308"/>
      <line x1="368" y1="308" x2="412" y2="332"/>
    </g>
    <rect x="454" y="252" width="18" height="96" rx="8" fill="#EAF4FF" opacity="0.9"/>
    <rect x="188" y="228" width="28" height="12" rx="6" fill="#EAF4FF" opacity="0.9"/>
    <rect x="188" y="254" width="44" height="12" rx="6" fill="#EAF4FF" opacity="0.8"/>
  </g>
</svg>
